<svg xmlns="http://www.w3.org/2000/svg" viewBox="-190 -110 350 210" aria-hidden="true">
  <defs>
    <mask id="cloud-word-interior" maskUnits="userSpaceOnUse" maskContentUnits="userSpaceOnUse" x="-1024" y="-1024" width="2048" height="2048">
      <rect x="-1024" y="-1024" width="2048" height="2048" fill="black"/>
      <path d="M -117.16 32.00 L 117.16 32.00 L 117.16 -0.00 L 69.90 -19.70 L 25.07 -28.61 L -28.26 -28.26 L -72.98 -18.76 L -117.16 -0.00 Z" fill="white"/>
      <g transform="translate(-159.07164098738352, -73.37777230069854) rotate(-23.000584099534112, 64, 64) translate(64, 64) scale(0.75, 1.0666666666666667) translate(-64, -64)">
        <path d="M 32 64 L 47.1 64 L 47.1 64 L 32 64 Z M 96 64 C 96 34.87, 78.29 11.25, 56.45 11.25 C 42.95 11.25, 32 25.85, 32 43.86 C 32 54.98, 38.76 64, 47.1 64 C 52.26 64, 56.45 57.55, 56.45 51.53 C 56.45 47.29, 53.88 43.86, 50.7 43.86 C 48.7 43.86, 47.2 45.86, 47.2 48.53 L 47.2 64 L 96 64 Z" fill="black" fill-rule="nonzero"/>
      </g>
      <g transform="translate(-114.62220081435814, -87.50894151994663) rotate(-12.002895088181333, 64, 64) translate(64, 64) scale(0.7142857142857143, 1.2) translate(-64, -64)">
        <path d="M 32 64 C 32.00 36.26, 53.00 48.28, 49.00 46.43 C 32.74 39.04, 42.00 35.34, 50.00 33.49 C 35.80 36.77, 11.89 12.22, 64.00 12.22 C 116.11 12.22, 92.20 36.77, 78.00 33.49 C 86.00 35.34, 95.26 39.04, 79.00 46.43 C 75.00 48.28, 96.00 36.26, 96 64 L 96 64 L 32 64 Z" fill="black" fill-rule="nonzero"/>
      </g>
      <g transform="translate(-65.59869180996259, -92.43775358418135) rotate(-0.3768982492745569, 64, 64) translate(64, 64) scale(0.8333333333333334, 1.0666666666666667) translate(-64, -64)">
        <path d="M 32 64 C 32 29.48, 96 29.48, 96 64 L 96 64 L 32 64 Z M 70.47 28.40 C 70.47 31.97, 67.57 34.87, 64.00 34.87 C 60.43 34.87, 57.53 31.97, 57.53 28.40 C 57.53 24.83, 60.43 21.93, 64.00 21.93 C 67.57 21.93, 70.47 24.83, 70.47 28.40 Z" fill="black" fill-rule="nonzero"/>
      </g>
      <g transform="translate(-16.514582677494268, -88.15431406195894) rotate(11.24909858963222, 64, 64) translate(64, 64) scale(0.7142857142857143, 0.8) translate(-64, -64)">
        <path d="M 32 64 C 32 1.26, 56 5.43, 56 25.17 L 56 64 L 32 64 Z M 96 64 C 96 1.26, 72 5.43, 72 25.17 L 72 64 L 96 64 Z M 56.00 31.64 C 56.00 57.53, 72.00 57.53, 72.00 31.64 L 72 64 L 56 64 Z" fill="black" fill-rule="nonzero"/>
      </g>
      <g transform="translate(29.533549305493693, -73.84772969727048) rotate(22.623685850259555, 64, 64) translate(64, 64) scale(0.8, 0.75) translate(-64, -64)">
        <path d="M 32 64 C 87.00 41.75, 104.91 31.42, 92.00 15.46 C 79.09 -0.50, 65.24 14.86, 32 64 Z M 32 64 C 53.33 55.37, 74.67 55.37, 96 64 L 96 64 L 32 64 Z" fill="black" fill-rule="nonzero"/>
      </g>
    </mask>
    <mask id="cloud-word-letters" maskUnits="userSpaceOnUse" maskContentUnits="userSpaceOnUse" x="-1024" y="-1024" width="2048" height="2048">
      <rect x="-1024" y="-1024" width="2048" height="2048" fill="black"/>
      <g transform="translate(-159.07164098738352, -73.37777230069854) rotate(-23.000584099534112, 64, 64) translate(64, 64) scale(0.75, 1.0666666666666667) translate(-64, -64)">
        <path d="M 32 64 L 47.1 64 L 47.1 64 L 32 64 Z M 96 64 C 96 34.87, 78.29 11.25, 56.45 11.25 C 42.95 11.25, 32 25.85, 32 43.86 C 32 54.98, 38.76 64, 47.1 64 C 52.26 64, 56.45 57.55, 56.45 51.53 C 56.45 47.29, 53.88 43.86, 50.7 43.86 C 48.7 43.86, 47.2 45.86, 47.2 48.53 L 47.2 64 L 96 64 Z" fill="white" fill-rule="nonzero"/>
      </g>
      <g transform="translate(-114.62220081435814, -87.50894151994663) rotate(-12.002895088181333, 64, 64) translate(64, 64) scale(0.7142857142857143, 1.2) translate(-64, -64)">
        <path d="M 32 64 C 32.00 36.26, 53.00 48.28, 49.00 46.43 C 32.74 39.04, 42.00 35.34, 50.00 33.49 C 35.80 36.77, 11.89 12.22, 64.00 12.22 C 116.11 12.22, 92.20 36.77, 78.00 33.49 C 86.00 35.34, 95.26 39.04, 79.00 46.43 C 75.00 48.28, 96.00 36.26, 96 64 L 96 64 L 32 64 Z" fill="white" fill-rule="nonzero"/>
      </g>
      <g transform="translate(-65.59869180996259, -92.43775358418135) rotate(-0.3768982492745569, 64, 64) translate(64, 64) scale(0.8333333333333334, 1.0666666666666667) translate(-64, -64)">
        <path d="M 32 64 C 32 29.48, 96 29.48, 96 64 L 96 64 L 32 64 Z M 70.47 28.40 C 70.47 31.97, 67.57 34.87, 64.00 34.87 C 60.43 34.87, 57.53 31.97, 57.53 28.40 C 57.53 24.83, 60.43 21.93, 64.00 21.93 C 67.57 21.93, 70.47 24.83, 70.47 28.40 Z" fill="white" fill-rule="nonzero"/>
      </g>
      <g transform="translate(-16.514582677494268, -88.15431406195894) rotate(11.24909858963222, 64, 64) translate(64, 64) scale(0.7142857142857143, 0.8) translate(-64, -64)">
        <path d="M 32 64 C 32 1.26, 56 5.43, 56 25.17 L 56 64 L 32 64 Z M 96 64 C 96 1.26, 72 5.43, 72 25.17 L 72 64 L 96 64 Z M 56.00 31.64 C 56.00 57.53, 72.00 57.53, 72.00 31.64 L 72 64 L 56 64 Z" fill="white" fill-rule="nonzero"/>
      </g>
      <g transform="translate(29.533549305493693, -73.84772969727048) rotate(22.623685850259555, 64, 64) translate(64, 64) scale(0.8, 0.75) translate(-64, -64)">
        <path d="M 32 64 C 87.00 41.75, 104.91 31.42, 92.00 15.46 C 79.09 -0.50, 65.24 14.86, 32 64 Z M 32 64 C 53.33 55.37, 74.67 55.37, 96 64 L 96 64 L 32 64 Z" fill="white" fill-rule="nonzero"/>
      </g>
      <path d="M -117.16 32.00 L 117.16 32.00 L 117.16 -0.00 L 69.90 -19.70 L 25.07 -28.61 L -28.26 -28.26 L -72.98 -18.76 L -117.16 -0.00 Z" fill="black"/>
    </mask>
  </defs>
  <path d="M -117.16 32.00 L 117.16 32.00 L 117.16 -0.00 L 69.90 -19.70 L 25.07 -28.61 L -28.26 -28.26 L -72.98 -18.76 L -117.16 -0.00 Z" fill="#E7F0FE" mask="url(#cloud-word-interior)"/>
  <g mask="url(#cloud-word-letters)">
    <g transform="translate(-159.07164098738352, -73.37777230069854) rotate(-23.000584099534112, 64, 64) translate(64, 64) scale(0.75, 1.0666666666666667) translate(-64, -64)">
      <path d="M 32 64 L 47.1 64 L 47.1 64 L 32 64 Z M 96 64 C 96 34.87, 78.29 11.25, 56.45 11.25 C 42.95 11.25, 32 25.85, 32 43.86 C 32 54.98, 38.76 64, 47.1 64 C 52.26 64, 56.45 57.55, 56.45 51.53 C 56.45 47.29, 53.88 43.86, 50.7 43.86 C 48.7 43.86, 47.2 45.86, 47.2 48.53 L 47.2 64 L 96 64 Z" fill="#E7F0FE" fill-rule="nonzero"/>
    </g>
    <g transform="translate(-114.62220081435814, -87.50894151994663) rotate(-12.002895088181333, 64, 64) translate(64, 64) scale(0.7142857142857143, 1.2) translate(-64, -64)">
      <path d="M 32 64 C 32.00 36.26, 53.00 48.28, 49.00 46.43 C 32.74 39.04, 42.00 35.34, 50.00 33.49 C 35.80 36.77, 11.89 12.22, 64.00 12.22 C 116.11 12.22, 92.20 36.77, 78.00 33.49 C 86.00 35.34, 95.26 39.04, 79.00 46.43 C 75.00 48.28, 96.00 36.26, 96 64 L 96 64 L 32 64 Z" fill="#E7F0FE" fill-rule="nonzero"/>
    </g>
    <g transform="translate(-65.59869180996259, -92.43775358418135) rotate(-0.3768982492745569, 64, 64) translate(64, 64) scale(0.8333333333333334, 1.0666666666666667) translate(-64, -64)">
      <path d="M 32 64 C 32 29.48, 96 29.48, 96 64 L 96 64 L 32 64 Z M 70.47 28.40 C 70.47 31.97, 67.57 34.87, 64.00 34.87 C 60.43 34.87, 57.53 31.97, 57.53 28.40 C 57.53 24.83, 60.43 21.93, 64.00 21.93 C 67.57 21.93, 70.47 24.83, 70.47 28.40 Z" fill="#E7F0FE" fill-rule="nonzero"/>
    </g>
    <g transform="translate(-16.514582677494268, -88.15431406195894) rotate(11.24909858963222, 64, 64) translate(64, 64) scale(0.7142857142857143, 0.8) translate(-64, -64)">
      <path d="M 32 64 C 32 1.26, 56 5.43, 56 25.17 L 56 64 L 32 64 Z M 96 64 C 96 1.26, 72 5.43, 72 25.17 L 72 64 L 96 64 Z M 56.00 31.64 C 56.00 57.53, 72.00 57.53, 72.00 31.64 L 72 64 L 56 64 Z" fill="#E7F0FE" fill-rule="nonzero"/>
    </g>
    <g transform="translate(29.533549305493693, -73.84772969727048) rotate(22.623685850259555, 64, 64) translate(64, 64) scale(0.8, 0.75) translate(-64, -64)">
      <path d="M 32 64 C 87.00 41.75, 104.91 31.42, 92.00 15.46 C 79.09 -0.50, 65.24 14.86, 32 64 Z M 32 64 C 53.33 55.37, 74.67 55.37, 96 64 L 96 64 L 32 64 Z" fill="#E7F0FE" fill-rule="nonzero"/>
    </g>
  </g>
  <g fill="#E7F0FE">
    <g transform="translate(-181.1636618700652, -64)">
      <path d="M 64 64 C 24 96, 24 96, 64 96 L 64 96 L 64 96 Z"/>
    </g>
    <g transform="translate(53.163661870065184, -64)">
      <path d="M 64 64 C 70 64, 74.67 68, 74.67 74.67 C 81 74.67, 85.33 79, 85.33 85.33 C 92 85.33, 96 88, 96 96 C 96 96, 64 96, 64 96 L 64 96 L 64 96 Z"/>
    </g>
  </g>
  <g fill="none" stroke="#3B82F6" stroke-width="1.25" stroke-linecap="round" stroke-linejoin="round" vector-effect="non-scaling-stroke">
    <g transform="translate(-181.1636618700652, -64)">
      <path d="M 64 64 C 24 96, 24 96, 64 96"/>
    </g>
    <g transform="translate(-159.07164098738352, -73.37777230069854) rotate(-23.000584099534112, 64, 64) translate(64, 64) scale(0.75, 1.0666666666666667) translate(-64, -64)">
      <path d="M 32 64 L 47.1 64 M 96 64 C 96 34.87, 78.29 11.25, 56.45 11.25 C 42.95 11.25, 32 25.85, 32 43.86 C 32 54.98, 38.76 64, 47.1 64 C 52.26 64, 56.45 57.55, 56.45 51.53 C 56.45 47.29, 53.88 43.86, 50.7 43.86 C 48.7 43.86, 47.2 45.86, 47.2 48.53"/>
    </g>
    <g transform="translate(-114.62220081435814, -87.50894151994663) rotate(-12.002895088181333, 64, 64) translate(64, 64) scale(0.7142857142857143, 1.2) translate(-64, -64)">
      <path d="M 32 64 C 32.00 36.26, 53.00 48.28, 49.00 46.43 C 32.74 39.04, 42.00 35.34, 50.00 33.49 C 35.80 36.77, 11.89 12.22, 64.00 12.22 C 116.11 12.22, 92.20 36.77, 78.00 33.49 C 86.00 35.34, 95.26 39.04, 79.00 46.43 C 75.00 48.28, 96.00 36.26, 96 64"/>
    </g>
    <g transform="translate(-65.59869180996259, -92.43775358418135) rotate(-0.3768982492745569, 64, 64) translate(64, 64) scale(0.8333333333333334, 1.0666666666666667) translate(-64, -64)">
      <path d="M 32 64 C 32 29.48, 96 29.48, 96 64 M 70.47 28.40 C 70.47 31.97, 67.57 34.87, 64.00 34.87 C 60.43 34.87, 57.53 31.97, 57.53 28.40 C 57.53 24.83, 60.43 21.93, 64.00 21.93 C 67.57 21.93, 70.47 24.83, 70.47 28.40 Z"/>
    </g>
    <g transform="translate(-16.514582677494268, -88.15431406195894) rotate(11.24909858963222, 64, 64) translate(64, 64) scale(0.7142857142857143, 0.8) translate(-64, -64)">
      <path d="M 32 64 C 32 1.26, 56 5.43, 56 25.17 M 96 64 C 96 1.26, 72 5.43, 72 25.17 M 56.00 31.64 C 56.00 57.53, 72.00 57.53, 72.00 31.64"/>
    </g>
    <g transform="translate(29.533549305493693, -73.84772969727048) rotate(22.623685850259555, 64, 64) translate(64, 64) scale(0.8, 0.75) translate(-64, -64)">
      <path d="M 32 64 C 87.00 41.75, 104.91 31.42, 92.00 15.46 C 79.09 -0.50, 65.24 14.86, 32 64 M 32 64 C 53.33 55.37, 74.67 55.37, 96 64"/>
    </g>
    <g transform="translate(53.163661870065184, -64)">
      <path d="M 64 64 C 70 64, 74.67 68, 74.67 74.67 C 81 74.67, 85.33 79, 85.33 85.33 C 92 85.33, 96 88, 96 96 C 96 96, 64 96, 64 96 M 66.00 74.00 L 70.35 69.66 M 66.00 84.00 L 73.33 76.69 M 66.00 94.00 L 80.37 79.63 M 76.00 94.00 L 83.31 86.67 M 86.00 94.00 L 90.71 89.28"/>
    </g>
    <line x1="-117.1636618700652" y1="32" x2="117.16366187006518" y2="32"/>
  </g>
</svg>
