<svg xmlns="http://www.w3.org/2000/svg" viewBox="-240 -150 460 270" aria-hidden="true">
  <defs>
    <mask id="script-word-interior" maskUnits="userSpaceOnUse" maskContentUnits="userSpaceOnUse" x="-1024" y="-1024" width="2048" height="2048">
      <rect x="-1024" y="-1024" width="2048" height="2048" fill="black"/>
      <path d="M -169.29 32.00 L 169.29 32.00 L 169.29 -0.00 L 96.50 -52.25 L 47.87 -68.25 L -24.03 -71.99 L -74.06 -61.12 L -134.87 -30.08 L -169.29 -0.00 Z" fill="white"/>
      <g transform="translate(-216.08031611107975, -79.0381588449277) rotate(-41.141390548816155, 64, 64) translate(64, 64) scale(0.7142857142857143, 0.75) translate(-64, -64)">
        <path d="M 96 64 C 74 -3.08, 48 9.34, 44 11.83 C 68 46.61, 42 64, 32 64 L 32 64 L 96 64 Z" fill="black" fill-rule="nonzero"/>
      </g>
      <g transform="translate(-168.46576486788717, -109.59589584720767) rotate(-27.044034201301667, 64, 64) translate(64, 64) scale(1.0666666666666667, 1.125) translate(-64, -64)">
        <path d="M 32 64 L 47.1 64 L 47.1 64 L 32 64 Z M 96 64 C 96 34.87, 78.29 11.25, 56.45 11.25 C 42.95 11.25, 32 25.85, 32 43.86 C 32 54.98, 38.76 64, 47.1 64 C 52.26 64, 56.45 57.55, 56.45 51.53 C 56.45 47.29, 53.88 43.86, 50.7 43.86 C 48.7 43.86, 47.2 45.86, 47.2 48.53 L 47.2 64 L 96 64 Z" fill="black" fill-rule="nonzero"/>
      </g>
      <g transform="translate(-113.04909943194393, -130.55437990784162) rotate(-12.266393057174405, 64, 64) translate(64, 64) scale(0.8, 1.4) translate(-64, -64)">
        <path d="M 32 64 C 54 -3.08, 80 9.34, 84 11.83 C 60 46.61, 86 64, 96 64 L 96 64 L 32 64 Z" fill="black" fill-rule="nonzero"/>
      </g>
      <g transform="translate(-52.08212256308051, -134.12360347746665) rotate(2.977031205845727, 64, 64) translate(64, 64) scale(1.125, 1.3333333333333333) translate(-64, -64)">
        <path d="M 96.00 64 C 41.00 41.75 23.09 31.42 36.00 15.46 C 48.91 -0.50 62.76 14.86 96.00 64 Z M 96.00 64 C 74.67 55.37 53.33 55.37 32.00 64 L 32 64 L 96 64 Z" fill="black" fill-rule="nonzero"/>
      </g>
      <g transform="translate(8.185721452888757, -124.24946538418014) rotate(18.220455468865858, 64, 64) translate(64, 64) scale(0.8, 1.25) translate(-64, -64)">
        <path d="M 32 64 C 32 2.28, 80 47.82, 52 47.82 L 52 47.82 C 43.5 47.82, 36 36, 38 25 C 42 13, 53.33 12.22, 64 12.22 C 74.67 12.22, 86 13, 90 25 C 92 36, 84.5 47.82, 76 47.82 C 48 47.82, 96 2.28, 96 64 L 32 64 Z" fill="black" fill-rule="nonzero"/>
      </g>
      <g transform="translate(68.89795646780416, -90.12250481227515) rotate(35.66828618642571, 64, 64) translate(64, 64) scale(1.4, 1.0666666666666667) translate(-64, -64)">
        <path d="M 32.00 64.00 C 34.67 61.33, 37.33 61.33, 40.00 64.00 L 40 64 L 32 64 Z M 40 64 C 40 50.75, 50.75 40, 64 40 C 77.25 40, 88 50.75, 88 64 L 40 64 Z M 88.00 64.00 C 90.67 61.33, 93.33 61.33, 96.00 64.00 L 96 64 L 88 64 Z" fill="black" fill-rule="evenodd"/>
      </g>
    </mask>
    <mask id="script-word-letters" maskUnits="userSpaceOnUse" maskContentUnits="userSpaceOnUse" x="-1024" y="-1024" width="2048" height="2048">
      <rect x="-1024" y="-1024" width="2048" height="2048" fill="black"/>
      <g transform="translate(-216.08031611107975, -79.0381588449277) rotate(-41.141390548816155, 64, 64) translate(64, 64) scale(0.7142857142857143, 0.75) translate(-64, -64)">
        <path d="M 96 64 C 74 -3.08, 48 9.34, 44 11.83 C 68 46.61, 42 64, 32 64 L 32 64 L 96 64 Z" fill="white" fill-rule="nonzero"/>
      </g>
      <g transform="translate(-168.46576486788717, -109.59589584720767) rotate(-27.044034201301667, 64, 64) translate(64, 64) scale(1.0666666666666667, 1.125) translate(-64, -64)">
        <path d="M 32 64 L 47.1 64 L 47.1 64 L 32 64 Z M 96 64 C 96 34.87, 78.29 11.25, 56.45 11.25 C 42.95 11.25, 32 25.85, 32 43.86 C 32 54.98, 38.76 64, 47.1 64 C 52.26 64, 56.45 57.55, 56.45 51.53 C 56.45 47.29, 53.88 43.86, 50.7 43.86 C 48.7 43.86, 47.2 45.86, 47.2 48.53 L 47.2 64 L 96 64 Z" fill="white" fill-rule="nonzero"/>
      </g>
      <g transform="translate(-113.04909943194393, -130.55437990784162) rotate(-12.266393057174405, 64, 64) translate(64, 64) scale(0.8, 1.4) translate(-64, -64)">
        <path d="M 32 64 C 54 -3.08, 80 9.34, 84 11.83 C 60 46.61, 86 64, 96 64 L 96 64 L 32 64 Z" fill="white" fill-rule="nonzero"/>
      </g>
      <g transform="translate(-52.08212256308051, -134.12360347746665) rotate(2.977031205845727, 64, 64) translate(64, 64) scale(1.125, 1.3333333333333333) translate(-64, -64)">
        <path d="M 96.00 64 C 41.00 41.75 23.09 31.42 36.00 15.46 C 48.91 -0.50 62.76 14.86 96.00 64 Z M 96.00 64 C 74.67 55.37 53.33 55.37 32.00 64 L 32 64 L 96 64 Z" fill="white" fill-rule="nonzero"/>
      </g>
      <g transform="translate(8.185721452888757, -124.24946538418014) rotate(18.220455468865858, 64, 64) translate(64, 64) scale(0.8, 1.25) translate(-64, -64)">
        <path d="M 32 64 C 32 2.28, 80 47.82, 52 47.82 L 52 47.82 C 43.5 47.82, 36 36, 38 25 C 42 13, 53.33 12.22, 64 12.22 C 74.67 12.22, 86 13, 90 25 C 92 36, 84.5 47.82, 76 47.82 C 48 47.82, 96 2.28, 96 64 L 32 64 Z" fill="white" fill-rule="nonzero"/>
      </g>
      <g transform="translate(68.89795646780416, -90.12250481227515) rotate(35.66828618642571, 64, 64) translate(64, 64) scale(1.4, 1.0666666666666667) translate(-64, -64)">
        <path d="M 32.00 64.00 C 34.67 61.33, 37.33 61.33, 40.00 64.00 L 40 64 L 32 64 Z M 40 64 C 40 50.75, 50.75 40, 64 40 C 77.25 40, 88 50.75, 88 64 L 40 64 Z M 88.00 64.00 C 90.67 61.33, 93.33 61.33, 96.00 64.00 L 96 64 L 88 64 Z" fill="white" fill-rule="evenodd"/>
      </g>
      <path d="M -169.29 32.00 L 169.29 32.00 L 169.29 -0.00 L 96.50 -52.25 L 47.87 -68.25 L -24.03 -71.99 L -74.06 -61.12 L -134.87 -30.08 L -169.29 -0.00 Z" fill="black"/>
    </mask>
  </defs>
  <path d="M -169.29 32.00 L 169.29 32.00 L 169.29 -0.00 L 96.50 -52.25 L 47.87 -68.25 L -24.03 -71.99 L -74.06 -61.12 L -134.87 -30.08 L -169.29 -0.00 Z" fill="#E7F0FE" mask="url(#script-word-interior)"/>
  <g mask="url(#script-word-letters)">
    <g transform="translate(-216.08031611107975, -79.0381588449277) rotate(-41.141390548816155, 64, 64) translate(64, 64) scale(0.7142857142857143, 0.75) translate(-64, -64)">
      <path d="M 96 64 C 74 -3.08, 48 9.34, 44 11.83 C 68 46.61, 42 64, 32 64 L 32 64 L 96 64 Z" fill="#E7F0FE" fill-rule="nonzero"/>
    </g>
    <g transform="translate(-168.46576486788717, -109.59589584720767) rotate(-27.044034201301667, 64, 64) translate(64, 64) scale(1.0666666666666667, 1.125) translate(-64, -64)">
      <path d="M 32 64 L 47.1 64 L 47.1 64 L 32 64 Z M 96 64 C 96 34.87, 78.29 11.25, 56.45 11.25 C 42.95 11.25, 32 25.85, 32 43.86 C 32 54.98, 38.76 64, 47.1 64 C 52.26 64, 56.45 57.55, 56.45 51.53 C 56.45 47.29, 53.88 43.86, 50.7 43.86 C 48.7 43.86, 47.2 45.86, 47.2 48.53 L 47.2 64 L 96 64 Z" fill="#E7F0FE" fill-rule="nonzero"/>
    </g>
    <g transform="translate(-113.04909943194393, -130.55437990784162) rotate(-12.266393057174405, 64, 64) translate(64, 64) scale(0.8, 1.4) translate(-64, -64)">
      <path d="M 32 64 C 54 -3.08, 80 9.34, 84 11.83 C 60 46.61, 86 64, 96 64 L 96 64 L 32 64 Z" fill="#E7F0FE" fill-rule="nonzero"/>
    </g>
    <g transform="translate(-52.08212256308051, -134.12360347746665) rotate(2.977031205845727, 64, 64) translate(64, 64) scale(1.125, 1.3333333333333333) translate(-64, -64)">
      <path d="M 96.00 64 C 41.00 41.75 23.09 31.42 36.00 15.46 C 48.91 -0.50 62.76 14.86 96.00 64 Z M 96.00 64 C 74.67 55.37 53.33 55.37 32.00 64 L 32 64 L 96 64 Z" fill="#E7F0FE" fill-rule="nonzero"/>
    </g>
    <g transform="translate(8.185721452888757, -124.24946538418014) rotate(18.220455468865858, 64, 64) translate(64, 64) scale(0.8, 1.25) translate(-64, -64)">
      <path d="M 32 64 C 32 2.28, 80 47.82, 52 47.82 L 52 47.82 C 43.5 47.82, 36 36, 38 25 C 42 13, 53.33 12.22, 64 12.22 C 74.67 12.22, 86 13, 90 25 C 92 36, 84.5 47.82, 76 47.82 C 48 47.82, 96 2.28, 96 64 L 32 64 Z" fill="#E7F0FE" fill-rule="nonzero"/>
    </g>
    <g transform="translate(68.89795646780416, -90.12250481227515) rotate(35.66828618642571, 64, 64) translate(64, 64) scale(1.4, 1.0666666666666667) translate(-64, -64)">
      <path d="M 32.00 64.00 C 34.67 61.33, 37.33 61.33, 40.00 64.00 L 40 64 L 32 64 Z M 40 64 C 40 50.75, 50.75 40, 64 40 C 77.25 40, 88 50.75, 88 64 L 40 64 Z M 88.00 64.00 C 90.67 61.33, 93.33 61.33, 96.00 64.00 L 96 64 L 88 64 Z" fill="#E7F0FE" fill-rule="evenodd"/>
    </g>
  </g>
  <g fill="#E7F0FE">
    <g transform="translate(-233.29376312697136, -64)">
      <path d="M 64 64 C 24 96, 24 96, 64 96 L 64 96 L 64 96 Z"/>
    </g>
    <g transform="translate(105.29376312697136, -64)">
      <path d="M 64 64 C 70 64, 74.67 68, 74.67 74.67 C 81 74.67, 85.33 79, 85.33 85.33 C 92 85.33, 96 88, 96 96 C 96 96, 64 96, 64 96 L 64 96 L 64 96 Z"/>
    </g>
  </g>
  <g fill="none" stroke="#3B82F6" stroke-width="1.25" stroke-linecap="round" stroke-linejoin="round" vector-effect="non-scaling-stroke">
    <g transform="translate(-233.29376312697136, -64)">
      <path d="M 64 64 C 24 96, 24 96, 64 96"/>
    </g>
    <g transform="translate(-216.08031611107975, -79.0381588449277) rotate(-41.141390548816155, 64, 64) translate(64, 64) scale(0.7142857142857143, 0.75) translate(-64, -64)">
      <path d="M 96 64 C 74 -3.08, 48 9.34, 44 11.83 C 68 46.61, 42 64, 32 64"/>
    </g>
    <g transform="translate(-168.46576486788717, -109.59589584720767) rotate(-27.044034201301667, 64, 64) translate(64, 64) scale(1.0666666666666667, 1.125) translate(-64, -64)">
      <path d="M 32 64 L 47.1 64 M 96 64 C 96 34.87, 78.29 11.25, 56.45 11.25 C 42.95 11.25, 32 25.85, 32 43.86 C 32 54.98, 38.76 64, 47.1 64 C 52.26 64, 56.45 57.55, 56.45 51.53 C 56.45 47.29, 53.88 43.86, 50.7 43.86 C 48.7 43.86, 47.2 45.86, 47.2 48.53"/>
    </g>
    <g transform="translate(-113.04909943194393, -130.55437990784162) rotate(-12.266393057174405, 64, 64) translate(64, 64) scale(0.8, 1.4) translate(-64, -64)">
      <path d="M 32 64 C 54 -3.08, 80 9.34, 84 11.83 C 60 46.61, 86 64, 96 64"/>
    </g>
    <g transform="translate(-52.08212256308051, -134.12360347746665) rotate(2.977031205845727, 64, 64) translate(64, 64) scale(1.125, 1.3333333333333333) translate(-64, -64)">
      <path d="M 96.00 64 C 41.00 41.75 23.09 31.42 36.00 15.46 C 48.91 -0.50 62.76 14.86 96.00 64 M 96.00 64 C 74.67 55.37, 53.33 55.37, 32.00 64"/>
    </g>
    <g transform="translate(8.185721452888757, -124.24946538418014) rotate(18.220455468865858, 64, 64) translate(64, 64) scale(0.8, 1.25) translate(-64, -64)">
      <path d="M 32 64 C 32 2.28, 80 47.82, 52 47.82 M 96 64 C 96 2.28, 48 47.82, 76 47.82 M 52 47.82 C 43.5 47.82, 36 36, 38 25 C 42 13, 53.33 12.22, 64 12.22 C 74.67 12.22, 86 13, 90 25 C 92 36, 84.5 47.82, 76 47.82"/>
    </g>
    <g transform="translate(68.89795646780416, -90.12250481227515) rotate(35.66828618642571, 64, 64) translate(64, 64) scale(1.4, 1.0666666666666667) translate(-64, -64)">
      <path d="M 32.00 64.00 C 34.67 61.33, 37.33 61.33, 40.00 64.00 M 40.00 64.00 C 40.00 50.75, 50.75 40.00, 64.00 40.00 C 77.25 40.00, 88.00 50.75, 88.00 64.00 C 88.00 77.25, 77.25 88.00, 64.00 88.00 C 50.75 88.00, 40.00 77.25, 40.00 64.00 M 88.00 64.00 C 90.67 61.33, 93.33 61.33, 96.00 64.00"/>
    </g>
    <g transform="translate(105.29376312697136, -64)">
      <path d="M 64 64 C 70 64, 74.67 68, 74.67 74.67 C 81 74.67, 85.33 79, 85.33 85.33 C 92 85.33, 96 88, 96 96 C 96 96, 64 96, 64 96 M 66.00 74.00 L 70.35 69.66 M 66.00 84.00 L 73.33 76.69 M 66.00 94.00 L 80.37 79.63 M 76.00 94.00 L 83.31 86.67 M 86.00 94.00 L 90.71 89.28"/>
    </g>
    <line x1="-169.29376312697136" y1="32" x2="169.29376312697136" y2="32"/>
  </g>
</svg>
