<svg width="480" height="480" viewBox="0 0 480 480" fill="none" xmlns="http://www.w3.org/2000/svg">
  <title>Matrix pi creature, neutral</title>
  <desc>Matrix-colored derivative of the MIT-licensed 3Blue1Brown Manim PiCreatures_plain.svg.</desc>
  <g>
    <path d="M251.6 114.7c0 4.2-1.4 8.2-3.7 11.3l-30.4.3c-2.6-3.1-4-7.3-4-11.6 0-10.5 8.5-19 19-19 10.6-.1 19.1 8.5 19.1 19z" fill="#E9FFEE" stroke="#05070A" stroke-width="3"/>
    <path d="M306.6 114.7c0 4.2-1.4 8.2-3.7 11.3l-30.4.3c-2.6-3.1-4-7.3-4-11.6 0-10.5 8.5-19 19-19 10.6-.1 19.1 8.5 19.1 19z" fill="#E9FFEE" stroke="#05070A" stroke-width="3"/>
    <path d="M238 99.8c-1.3.1-2.3 1.1-2.3 2.4s1.1 2.4 2.4 2.4 2.4-1.1 2.4-2.4-1.1-2.4-2.4-2.4H238l2.9-1c4.3 0 7.7 3.5 7.7 7.7s-3.5 7.7-7.7 7.7-7.7-3.5-7.7-7.7 3.5-7.7 7.7-7.7" fill="#05070A"/>
    <path d="M293 99.8c-1.3.1-2.3 1.1-2.3 2.4s1.1 2.4 2.4 2.4 2.4-1.1 2.4-2.4-1.1-2.4-2.4-2.4H293l2.9-1c4.3 0 7.7 3.5 7.7 7.7s-3.5 7.7-7.7 7.7-7.7-3.5-7.7-7.7 3.5-7.7 7.7-7.7" fill="#05070A"/>
    <path d="M228.4 157.1h64.4c-15.4 63.8-25.1 105.4-25.1 151 0 8 0 69.5 23.4 69.5 12 0 22.2-10.8 22.2-20.5 0-2.8 0-4-4-12.5-15.4-39.3-15.4-88.3-15.4-92.3 0-3.4 0-43.9 12-95.1h63.8c7.4 0 26.2 0 26.2-18.2 0-12.5-10.8-12.5-21.1-12.5H187.4c-13.1 0-32.5 0-58.7 27.9-14.8 16.5-33 46.7-33 50.1s2.8 4.6 6.3 4.6c4 0 4.6-1.7 7.4-5.1 29.6-46.7 59.2-46.7 73.5-46.7h32.5c-12.5 42.7-26.8 92.3-73.5 192-4.6 9.1-4.6 10.3-4.6 13.7 0 12 10.3 14.8 15.4 14.8 16.5 0 21.1-14.8 27.9-38.7 9.1-29.1 9.1-30.2 14.8-53l33-129" fill="#78FF92" stroke="#E9FFEE" stroke-width="4" stroke-linejoin="round"/>
    <path d="M246.3 149.1c5.5 0 1.9.1 13.5 0 10.3-.1 12.4-.1 15.7-.2l-.3-3.1c-3.7.1-9.3.2-14.7.2-3.9 0-8.5 0-14.6 0" fill="#05070A"/>
  </g>
</svg>
